<svg width="48" height="48" viewBox="0 0 48 48" fill="none" xmlns="http://www.w3.org/2000/svg">
<path d="M48 0H0V48H48V0Z" fill="#FF5252"/>
<path fill-rule="evenodd" clip-rule="evenodd" d="M12 31.3506H36V16.8H12V31.3506ZM36.6 15.6H11.4C11.0688 15.6 10.8 15.8682 10.8 16.2V31.9506C10.8 32.2824 11.0688 32.5506 11.4 32.5506H36.6C36.9318 32.5506 37.2 32.2824 37.2 31.9506V16.2C37.2 15.8682 36.9318 15.6 36.6 15.6ZM16.9014 23.0886C17.4546 23.0886 17.9046 23.5386 17.9046 24.0918C17.9046 24.645 17.4546 25.095 16.9014 25.095C16.3482 25.095 15.8982 24.645 15.8982 24.0918C15.8982 23.5386 16.3482 23.0886 16.9014 23.0886ZM16.9014 26.295C18.1164 26.295 19.1046 25.3068 19.1046 24.0918C19.1046 22.8774 18.1164 21.8886 16.9014 21.8886C15.687 21.8886 14.6982 22.8774 14.6982 24.0918C14.6982 25.3068 15.687 26.295 16.9014 26.295ZM18.5046 19.425C20.547 19.425 22.3326 20.7294 22.9476 22.6698C23.0268 22.9194 23.2584 23.0886 23.52 23.0886H25.1454C25.3044 23.0886 25.4568 23.0256 25.5696 22.9134L26.5194 21.9636L27.4692 22.9134C27.5814 23.0256 27.7338 23.0886 27.8934 23.0886H28.809C28.9686 23.0886 29.1204 23.0256 29.2332 22.9134L30.183 21.9636L31.1328 22.9134C31.2456 23.0256 31.3974 23.0886 31.557 23.0886H32.7054L33.9204 24.1524L33.1134 25.095H23.52C23.2584 25.095 23.0268 25.2642 22.9476 25.5138C22.3326 27.4548 20.547 28.7592 18.5046 28.7592C15.9312 28.7592 13.8378 26.6652 13.8378 24.0918C13.8378 21.5184 15.9312 19.425 18.5046 19.425ZM18.5046 29.9592C20.9232 29.9592 23.055 28.5042 23.9418 26.295H33.3894C33.5646 26.295 33.7308 26.2182 33.8454 26.0856L35.2188 24.4824C35.4324 24.2328 35.4054 23.8572 35.1576 23.64L33.3258 22.0374C33.2172 21.9414 33.0762 21.8886 32.931 21.8886H31.8054L30.6072 20.691C30.3726 20.457 29.9934 20.457 29.7588 20.691L28.5606 21.8886H28.1418L26.9436 20.691C26.709 20.457 26.3292 20.457 26.0952 20.691L24.8964 21.8886H23.9418C23.055 19.68 20.9226 18.225 18.5046 18.225C15.27 18.225 12.6378 20.8572 12.6378 24.0918C12.6378 27.327 15.27 29.9592 18.5046 29.9592Z" fill="white"/>
</svg>
